<svg xmlns="http://www.w3.org/2000/svg" viewBox="0 0 100 100" width="100" height="100">
  <!-- トップレベル -->
  <rect x="35" y="15" width="30" height="18" rx="2" fill="none" stroke="#000000" stroke-width="2"/>
  
  <!-- 接続線 -->
  <line x1="50" y1="33" x2="50" y2="40" stroke="#666666" stroke-width="2"/>
  <line x1="25" y1="40" x2="75" y2="40" stroke="#666666" stroke-width="2"/>
  <line x1="25" y1="40" x2="25" y2="47" stroke="#666666" stroke-width="2"/>
  <line x1="50" y1="40" x2="50" y2="47" stroke="#666666" stroke-width="2"/>
  <line x1="75" y1="40" x2="75" y2="47" stroke="#666666" stroke-width="2"/>
  
  <!-- セカンドレベル -->
  <rect x="10" y="47" width="30" height="16" rx="2" fill="none" stroke="#000000" stroke-width="2"/>
  <rect x="35" y="47" width="30" height="16" rx="2" fill="none" stroke="#000000" stroke-width="2"/>
  <rect x="60" y="47" width="30" height="16" rx="2" fill="none" stroke="#000000" stroke-width="2"/>
  
  <!-- 下位レベルへの接続線 -->
  <line x1="25" y1="63" x2="25" y2="70" stroke="#666666" stroke-width="2"/>
  <line x1="15" y1="70" x2="35" y2="70" stroke="#666666" stroke-width="2"/>
  <line x1="15" y1="70" x2="15" y2="77" stroke="#666666" stroke-width="2"/>
  <line x1="35" y1="70" x2="35" y2="77" stroke="#666666" stroke-width="2"/>
  
  <line x1="75" y1="63" x2="75" y2="77" stroke="#666666" stroke-width="2"/>
  
  <!-- サードレベル -->
  <rect x="5" y="77" width="20" height="12" rx="2" fill="none" stroke="#000000" stroke-width="2"/>
  <rect x="30" y="77" width="20" height="12" rx="2" fill="none" stroke="#000000" stroke-width="2"/>
  <rect x="65" y="77" width="20" height="12" rx="2" fill="none" stroke="#000000" stroke-width="2"/>
</svg>